<svg id="Managed-Identities" xmlns="http://www.w3.org/2000/svg" viewBox="0 0 18 18"><defs><linearGradient id="Managed-Identities-i1" x1="13.18" y1="13.01" x2="8.63" y2="4.38" gradientUnits="userSpaceOnUse"><stop offset="0" stop-color="#1988d9" /><stop offset="0.9" stop-color="#54aef0" /></linearGradient><linearGradient id="Managed-Identities-i2" x1="11.22" y1="10.5" x2="14.37" y2="15.93" gradientUnits="userSpaceOnUse"><stop offset="0.1" stop-color="#54aef0" /><stop offset="0.29" stop-color="#4fabee" /><stop offset="0.51" stop-color="#41a2e9" /><stop offset="0.74" stop-color="#2a93e0" /><stop offset="0.88" stop-color="#1988d9" /></linearGradient></defs><g><polygon points="1.15 10.22 8.93 15.27 16.85 10.21 17.85 11.36 8.93 17.11 0.15 11.37 1.15 10.22" fill="#50e6ff" /><polygon points="1.73 9.58 8.93 1 16.28 9.59 8.93 14.23 1.73 9.58" fill="#fff" /><polygon points="8.93 1 8.93 14.23 1.73 9.58 8.93 1" fill="#50e6ff" /><polygon points="8.93 1 8.93 14.23 16.28 9.59 8.93 1" fill="url(#Managed-Identities-i1)" /><polygon points="8.93 7.83 16.28 9.59 8.93 14.23 8.93 7.83" fill="#53b1e0" /><polygon points="8.93 14.23 1.73 9.58 8.93 7.83 8.93 14.23" fill="#9cebff" /><polygon points="8.93 17.11 17.85 11.36 16.85 10.21 8.93 15.27 8.93 17.11" fill="url(#Managed-Identities-i2)" /><g><path d="M16.32,11.88a1.16,1.16,0,0,0,0-1.65h0l-2-2a1.16,1.16,0,0,0-1.64,0h0l-2,2a1.18,1.18,0,0,0,0,1.65l1.67,1.67a.32.32,0,0,1,.09.23v3.1a.36.36,0,0,0,.12.28l.76.76a.25.25,0,0,0,.37,0l.73-.73h0l.44-.44a.15.15,0,0,0,0-.21l-.31-.31a.16.16,0,0,1,0-.24l.31-.31a.16.16,0,0,0,0-.22l-.31-.31a.15.15,0,0,1,0-.23l.31-.32a.15.15,0,0,0,0-.21l-.44-.44v-.16ZM13.5,8.71a.66.66,0,1,1-.66.66.66.66,0,0,1,.66-.66Z" fill="#ffca00" /><path d="M13,17h0a.14.14,0,0,0,.24-.11V14.33a.16.16,0,0,0-.06-.13h0a.14.14,0,0,0-.22.13v2.51A.15.15,0,0,0,13,17Z" fill="#ff9300" opacity="0.75" /><rect x="11.9" y="10.9" width="3.29" height="0.39" rx="0.18" fill="#ff9300" opacity="0.75" /><rect x="11.9" y="11.53" width="3.29" height="0.39" rx="0.18" fill="#ff9300" opacity="0.75" /></g></g></svg>
