<svg id="NAT-Gateway" xmlns="http://www.w3.org/2000/svg" viewBox="0 0 18 18"><defs><linearGradient id="NAT-Gateway-i1" x1="9" y1="18.17" x2="9" y2="1.506" gradientTransform="translate(9 -3.728) rotate(45)" gradientUnits="userSpaceOnUse"><stop offset="0" stop-color="#238ab0" /><stop offset="0.109" stop-color="#2da4c8" /><stop offset="0.775" stop-color="#3ed3f2" /></linearGradient></defs><g><rect x="2.553" y="2.553" width="12.893" height="12.893" rx="0.591" transform="translate(-3.728 9) rotate(-45)" fill="url(#NAT-Gateway-i1)" /><polygon points="14.092 10.067 13.734 9.709 13.734 8.33 10.877 8.33 10.877 9.85 12.158 9.85 8.94 13.069 5.721 9.85 7.023 9.85 7.023 8.33 3.885 8.33 3.885 9.85 4.004 9.85 3.788 10.067 8.286 14.565 8.94 13.912 9.593 14.565 14.092 10.067" fill="#9cebff" /><g><ellipse cx="3.977" cy="9.09" rx="1.577" ry="1.585" transform="translate(-5.271 5.494) rotate(-45.121)" fill="#fff" /><ellipse cx="3.977" cy="9.09" rx="0.896" ry="0.905" transform="translate(-5.267 5.484) rotate(-45.061)" fill="#86d633" /><ellipse cx="14.014" cy="9.09" rx="1.577" ry="1.585" transform="translate(-2.316 12.607) rotate(-45.121)" fill="#fff" /><ellipse cx="14.014" cy="9.09" rx="0.896" ry="0.905" transform="translate(-2.319 12.59) rotate(-45.061)" fill="#86d633" /></g><g><path d="M11.04,4.806l-2-2a.15.15,0,0,0-.213,0l-2,2a.15.15,0,0,0,.106.257H8.068a.107.107,0,0,1,.107.107V15.433H9.7V5.17A.107.107,0,0,1,9.8,5.063h1.131A.15.15,0,0,0,11.04,4.806Z" fill="#fff" /><ellipse cx="8.935" cy="14.139" rx="1.577" ry="1.585" transform="translate(-7.388 10.494) rotate(-45.121)" fill="#fff" /><ellipse cx="8.935" cy="14.139" rx="0.896" ry="0.905" transform="translate(-7.384 10.477) rotate(-45.061)" fill="#86d633" /></g></g></svg>
