<svg id="ConstructorIcon" xmlns="http://www.w3.org/2000/svg" width="18" height="18" viewBox="0 0 18 18"><defs><radialGradient id="methodGradient" cx="55.71" cy="71.92" r="9" gradientTransform="translate(-43.61 -58.92) scale(0.94 0.94)" gradientUnits="userSpaceOnUse"><stop offset="0.67" stop-color="#6bb9f2" /><stop offset="0.74" stop-color="#61b4f1" /><stop offset="0.85" stop-color="#47a8ef" /><stop offset="0.99" stop-color="#1d94eb" /><stop offset="1" stop-color="#1b93eb" /></radialGradient></defs><path d="M9,.5A8.5,8.5,0,1,0,17.5,9,8.5,8.5,0,0,0,9,.5Z" fill="url(#methodGradient)" /><circle cx="9" cy="9" r="7.03" fill="#fff" /><circle cx="9" cy="9" r="2.4" fill="none" stroke="#32bedd" stroke-width="1" /><circle cx="9" cy="9" r="0.95" fill="#32bedd" /><rect x="8.7" y="5.3" width="0.6" height="1.6" rx="0.3" fill="#32bedd" /><rect x="8.7" y="11.1" width="0.6" height="1.6" rx="0.3" fill="#32bedd" /><rect x="5.3" y="8.7" width="1.6" height="0.6" rx="0.3" fill="#32bedd" /><rect x="11.1" y="8.7" width="1.6" height="0.6" rx="0.3" fill="#32bedd" /><rect x="6" y="6" width="1.2" height="1.2" transform="rotate(-45 6.6 6.6)" fill="#32bedd" opacity="0.7" /><rect x="10.8" y="10.8" width="1.2" height="1.2" transform="rotate(-45 11.4 11.4)" fill="#32bedd" opacity="0.7" /><rect x="10.8" y="6" width="1.2" height="1.2" transform="rotate(45 11.4 6.6)" fill="#32bedd" opacity="0.7" /><rect x="6" y="10.8" width="1.2" height="1.2" transform="rotate(45 6.6 11.4)" fill="#32bedd" opacity="0.7" /></svg>