<svg id="EventIcon" xmlns="http://www.w3.org/2000/svg" width="18" height="18" viewBox="0 0 18 18"><defs><radialGradient id="eventGradient" cx="55.71" cy="71.92" r="9" gradientTransform="translate(-43.61 -58.92) scale(0.94 0.94)" gradientUnits="userSpaceOnUse"><stop offset="0.67" stop-color="#6bb9f2" /><stop offset="0.74" stop-color="#61b4f1" /><stop offset="0.85" stop-color="#47a8ef" /><stop offset="0.99" stop-color="#1d94eb" /><stop offset="1" stop-color="#1b93eb" /></radialGradient></defs><path d="M9,.5A8.5,8.5,0,1,0,17.5,9,8.5,8.5,0,0,0,9,.5Z" fill="url(#eventGradient)" /><circle cx="9" cy="9" r="7.03" fill="#fff" /><circle cx="9" cy="9" r="1.25" fill="#32bedd" /><path d="M6.4,6.4A3.6,3.6,0,0,1,6.4,11.6" fill="none" stroke="#32bedd" stroke-width="1" stroke-linecap="round" /><path d="M11.6,6.4A3.6,3.6,0,0,0,11.6,11.6" fill="none" stroke="#32bedd" stroke-width="1" stroke-linecap="round" /><path d="M5,5A5.2,5.2,0,0,1,5,13" fill="none" stroke="#32bedd" stroke-width="0.8" stroke-linecap="round" opacity="0.6" /><path d="M13,5A5.2,5.2,0,0,0,13,13" fill="none" stroke="#32bedd" stroke-width="0.8" stroke-linecap="round" opacity="0.6" /></svg>