<svg id="Files" xmlns="http://www.w3.org/2000/svg" width="24" height="24" viewBox="0 0 24 24"><defs><linearGradient id="gradFilesBack" x1="0" y1="0" x2="0" y2="1"><stop offset="0" stop-color="#7E6CF2" /><stop offset="1" stop-color="#5E47D8" /></linearGradient><linearGradient id="gradFilesFront" x1="0" y1="0" x2="0" y2="1"><stop offset="0" stop-color="#A395FB" /><stop offset="1" stop-color="#8A77F2" /></linearGradient></defs><path d="M2.8,7.2 a2,2 0 0 1 2,-2 H9 a1.5,1.5 0 0 1 1.1,0.5 L11.6,7.2 H19.2 a2,2 0 0 1 2,2 V17.2 a2,2 0 0 1 -2,2 H4.8 a2,2 0 0 1 -2,-2 Z" fill="url(#gradFilesBack)" /><path d="M2.8,10 H21.2 V17.2 a2,2 0 0 1 -2,2 H4.8 a2,2 0 0 1 -2,-2 Z" fill="url(#gradFilesFront)" /></svg>
