<svg id="MethodIcon" xmlns="http://www.w3.org/2000/svg" width="18" height="18" viewBox="0 0 18 18"><defs><radialGradient id="methodGradient" cx="55.71" cy="71.92" r="9" gradientTransform="translate(-43.61 -58.92) scale(0.94 0.94)" gradientUnits="userSpaceOnUse"><stop offset="0.67" stop-color="#6bb9f2" /><stop offset="0.74" stop-color="#61b4f1" /><stop offset="0.85" stop-color="#47a8ef" /><stop offset="0.99" stop-color="#1d94eb" /><stop offset="1" stop-color="#1b93eb" /></radialGradient></defs><path d="M9,.5A8.5,8.5,0,1,0,17.5,9,8.5,8.5,0,0,0,9,.5Z" fill="url(#methodGradient)" /><circle cx="9" cy="9" r="7.03" fill="#fff" /><path d="M7.2,5.5c-.9.35-1.5,1-1.5,1.7s.6,1.3,1.5,1.6v0c-.9.35-1.5,1-1.5,1.7s.6,1.35,1.5,1.7" fill="none" stroke="#32bedd" stroke-width="1.1" stroke-linecap="round" stroke-linejoin="round" /><path d="M10.8,5.5c.9.35,1.5,1,1.5,1.7s-.6,1.3-1.5,1.6v0c.9.35,1.5,1,1.5,1.7s-.6,1.35-1.5,1.7" fill="none" stroke="#32bedd" stroke-width="1.1" stroke-linecap="round" stroke-linejoin="round" /></svg>