<svg id="MethodIcon" xmlns="http://www.w3.org/2000/svg" width="24" height="24" viewBox="0 0 24 24"><circle cx="12" cy="12" r="11" fill="#19a7c4" /><circle cx="12" cy="12" r="11" fill="none" stroke="#12879e" stroke-width="1" /><g fill="none" stroke="#fff" stroke-width="1.7" stroke-linecap="round" stroke-linejoin="round"><path d="M10.4,6.6 C8.9,6.6 9.1,8.2 9.1,9.2 C9.1,10.6 8.2,11.2 7.4,12 C8.2,12.8 9.1,13.4 9.1,14.8 C9.1,15.8 8.9,17.4 10.4,17.4" /><path d="M13.6,6.6 C15.1,6.6 14.9,8.2 14.9,9.2 C14.9,10.6 15.8,11.2 16.6,12 C15.8,12.8 14.9,13.4 14.9,14.8 C14.9,15.8 15.1,17.4 13.6,17.4" /></g></svg>
