<svg id="NamespaceIcon" xmlns="http://www.w3.org/2000/svg" width="24" height="24" viewBox="0 0 24 24"><rect x="2.8" y="4" width="18.4" height="16" rx="3" fill="#5b7fb5" /><g fill="none" stroke="#fff" stroke-width="1.5" stroke-linecap="round" stroke-linejoin="round"><path d="M8.6,7 C7.2,7 7.4,9 7.4,9.8 C7.4,11 6.6,11.4 6,12 C6.6,12.6 7.4,13 7.4,14.2 C7.4,15 7.2,17 8.6,17" /><path d="M15.4,7 C16.8,7 16.6,9 16.6,9.8 C16.6,11 17.4,11.4 18,12 C17.4,12.6 16.6,13 16.6,14.2 C16.6,15 16.8,17 15.4,17" /></g><g fill="#f0a05a"><rect x="9.4" y="10.2" width="5.2" height="1.5" rx="0.75" /><rect x="9.4" y="12.6" width="5.2" height="1.5" rx="0.75" /></g></svg>
