<svg id="Api" xmlns="http://www.w3.org/2000/svg" width="24" height="24" viewBox="0 0 24 24"><defs><linearGradient id="gradApi" x1="0" y1="0" x2="0" y2="1"><stop offset="0" stop-color="#7B6BE8" /><stop offset="1" stop-color="#5B45CE" /></linearGradient></defs><rect x="3" y="3" width="18" height="18" rx="3.6" fill="url(#gradApi)" /><g fill="none" stroke="#fff" stroke-width="1.5" stroke-linecap="round" stroke-linejoin="round"><path d="M9.5,7 C8,7 8.2,9 8.2,9.8 C8.2,11 7.4,11.4 6.8,12 C7.4,12.6 8.2,13 8.2,14.2 C8.2,15 8,17 9.5,17" /><path d="M14.5,7 C16,7 15.8,9 15.8,9.8 C15.8,11 16.6,11.4 17.2,12 C16.6,12.6 15.8,13 15.8,14.2 C15.8,15 16,17 14.5,17" /></g><circle cx="12" cy="12" r="1" fill="#fff" /></svg>
