<svg id="Cloud-TPU" xmlns="http://www.w3.org/2000/svg" viewBox="0 0 24 24"><g data-name="Product Icons"><g data-name="colored-32/TPU"><g ><path d="M6.48,9.62a.37.37,0,1,1-.05-.74l2.3-.32a.37.37,0,0,1,.42.32.38.38,0,0,1-.32.43l-2.3.31Z" fill="#4285f4"/><rect x="11.11" y="7.43" width="0.75" height="4.36" transform="translate(-1.21 17.55) rotate(-71.93)" fill="#4285f4"/><path data-name="Shape" d="M9.18,9.16H9.07a.37.37,0,0,1-.24-.46l.83-2.84a.37.37,0,0,1,.46-.24.36.36,0,0,1,.26.45L9.54,8.88A.38.38,0,0,1,9.18,9.16Z" fill="#4285f4"/><path data-name="Shape" d="M14.31,10.56a.36.36,0,0,1-.31-.17A.36.36,0,0,1,14,10l1.67-4.23a.38.38,0,0,1,.47-.18.38.38,0,0,1,.23.45l-1.68,4.24A.39.39,0,0,1,14.31,10.56Z" fill="#4285f4"/><rect data-name="Rectangle-path" x="5.35" y="14.95" width="5.03" height="0.75" transform="translate(-7.84 8.26) rotate(-38.61)" fill="#4285f4"/><polygon data-name="Rectangle-path" points="14.12 10.71 14.41 10.02 18.05 11.61 17.75 12.29 14.12 10.71" fill="#4285f4"/><polygon data-name="Rectangle-path" points="13.99 14.59 14.51 14.04 17.74 17.09 17.22 17.63 13.99 14.59" fill="#4285f4"/><rect data-name="Rectangle-path" x="9.18" y="9" width="0.75" height="4.06" transform="translate(-2 2.12) rotate(-11.48)" fill="#4285f4"/><polygon data-name="Rectangle-path" points="9.96 13.6 14.06 10 14.56 10.56 10.46 14.16 9.96 13.6" fill="#4285f4"/><polygon data-name="Rectangle-path" points="13.75 14.22 13.99 10.25 14.74 10.3 14.49 14.27 13.75 14.22" fill="#4285f4"/><circle cx="10.01" cy="13.82" r="1.36" fill="#4285f4"/><circle data-name="Oval" cx="14.37" cy="10.36" r="1.61" fill="#4285f4"/><circle data-name="Oval" cx="14.36" cy="14.54" r="0.84" fill="#4285f4"/><circle data-name="Oval" cx="9.04" cy="8.67" r="0.99" fill="#4285f4"/></g></g><polygon points="13 3 11 3 11 7 13 7 13 3 13 3" fill="#669df6"/><polygon points="17 3 15 3 15 7 17 7 17 3 17 3" fill="#669df6"/><polygon points="9 3 7 3 7 7 9 7 9 3 9 3" fill="#669df6"/><polygon points="13 17 11 17 11 21 13 21 13 17 13 17" fill="#669df6"/><polygon points="17 17 15 17 15 21 17 21 17 17 17 17" fill="#669df6"/><polygon points="9 17 7 17 7 21 9 21 9 17 9 17" fill="#669df6"/><polygon points="7 11 3 11 3 13 7 13 7 11 7 11" fill="#669df6"/><polygon points="7 7 3 7 3 9 7 9 7 7 7 7" fill="#669df6"/><polygon points="7 15 3 15 3 17 7 17 7 15 7 15" fill="#669df6"/><polygon points="21 11 17 11 17 13 21 13 21 11 21 11" fill="#669df6"/><polygon points="21 7 17 7 17 9 21 9 21 7 21 7" fill="#669df6"/><polygon points="21 15 17 15 17 17 21 17 21 15 21 15" fill="#669df6"/><path d="M18,5H6A1,1,0,0,0,5,6V18a1,1,0,0,0,1,1H18a1,1,0,0,0,1-1V6A1,1,0,0,0,18,5ZM17,16.47a.53.53,0,0,1-.53.53H7.53A.53.53,0,0,1,7,16.47V7.53A.53.53,0,0,1,7.53,7h8.94a.53.53,0,0,1,.53.53Z" fill="#669df6"/></g></svg>
