<svg id="Cloud-Functions" xmlns="http://www.w3.org/2000/svg" viewBox="0 0 24 24"><g data-name="Product Icons"><g data-name="colored-32/functions"><g ><polygon points="2 15.56 5 18 5 6 2 8.43 2 15.56" fill="#669df6"/><polygon points="2 10 5 8 5 6 2 10" fill="#4285f4"/><polygon points="5 18 5 16 2 14 5 18" fill="#4285f4"/><polygon points="8 20 2 14 2 18 6 22 8 20" fill="#aecbfa"/></g></g><polygon points="5.99 2.01 2 6 2.01 10 7.99 4.01 5.99 2.01" fill="#aecbfa"/><g data-name="colored-32/functions"><g data-name="Shape"><polygon points="22 8.45 19 6.01 19 18.01 22 15.59 22 8.45" fill="#669df6"/><polygon points="22 14.01 19 16.01 19 18.01 22 14.01" fill="#4285f4"/><polygon points="19 6.01 19 8.01 22 10.01 19 6.01" fill="#4285f4"/><polygon points="16 4.01 22 10.01 22 6.01 18 2.01 16 4.01" fill="#aecbfa"/></g></g><polygon points="18.01 22 22 18.01 21.99 14.01 16.01 20 18.01 22" fill="#aecbfa"/><circle cx="8" cy="12" r="1" fill="#aecbfa"/><circle data-name="Oval" cx="12" cy="12" r="1" fill="#aecbfa"/><circle data-name="Oval" cx="15.99" cy="12" r="1" fill="#aecbfa"/></g></svg>
