<svg id="Cloud-Endpoints" xmlns="http://www.w3.org/2000/svg" viewBox="0 0 24 24"><g data-name="Product Icons"><g data-name="colored-32/endpoints"><g ><polygon points="15 10 9 10 8 12 9 14 15 14 16 12 15 10" fill="#4285f4"/><polygon data-name="Shape" points="16 12 15 10 9.51 10 9 10 8 12 16 12" fill="#aecbfa"/></g></g><polygon points="18 6 15 6 18.97 12 20.47 9.75 18 6" fill="#4285f4"/><polygon points="21.95 12 20.47 9.75 18.97 12 18.97 12 15 18 18 18 21.95 12" fill="#aecbfa"/><polygon points="5.95 18 8.95 18 4.98 12 3.48 14.25 5.95 18" fill="#4285f4"/><polygon points="2 12 3.48 14.25 4.98 12 4.98 12 8.95 6 5.95 6 2 12" fill="#aecbfa"/></g></svg>
