<svg id="Cloud-Interconnect" xmlns="http://www.w3.org/2000/svg" viewBox="0 0 24 24"><g data-name="Product Icons"><g ><polygon points="2 13 6 13 6 11 2 11 2 13" fill="#4285f4" fill-rule="evenodd"/><polygon points="15 17 5 17 5 7 15 7 15 17" fill-rule="evenodd" fill="#aecbfa"/><polygon points="17.33 13 22 13 22 11 17.33 11 17.33 13" fill="#4285f4" fill-rule="evenodd"/><polygon points="8 3 8 5 17 5 17 19 8 19 8 21 19 21 19 19 19 5 19 3 8 3" fill-rule="evenodd" fill="#669df6"/><polygon points="15 17 10 17 10 7 15 7 15 17" fill-rule="evenodd" fill="#669df6"/></g></g></svg>
