<svg id="Cloud-Armor" xmlns="http://www.w3.org/2000/svg" viewBox="0 0 24 24"><g data-name="Product Icons"><polygon points="9.76 20.6 8.72 19.55 14.17 14.07 15.21 15.12 9.76 20.6" fill="#aecbfa"/><polygon points="7.03 18.32 5.99 17.27 13.34 9.88 14.38 10.93 7.03 18.32" fill="#aecbfa"/><polygon points="5.34 14.98 4.3 13.93 9.18 9.03 10.22 10.08 5.34 14.98" fill="#aecbfa"/><path d="M12,3.61l6.78,3v4.55A9.71,9.71,0,0,1,12,20.48a9.7,9.7,0,0,1-6.78-9.31V6.63l6.78-3M12,2,3.75,5.68v5.49A11.17,11.17,0,0,0,11.85,22L12,22l.15,0a11.17,11.17,0,0,0,8.1-10.78V5.68L12,2Z" fill="#669df6"/><circle cx="14.69" cy="14.62" r="1.42" fill="#669df6"/><circle cx="13.85" cy="10.45" r="1.42" fill="#669df6"/><circle cx="9.69" cy="9.6" r="1.42" fill="#669df6"/></g></svg>
