<svg id="Cloud-Scheduler" xmlns="http://www.w3.org/2000/svg" viewBox="0 0 24 24"><g data-name="Product Icons"><path d="M20,21a1,1,0,0,1-.7-.29l-2-2a1,1,0,0,1,1.41-1.41l2,2a1,1,0,0,1,0,1.41A1,1,0,0,1,20,21Z" fill="#669df6"/><path d="M4,21a1,1,0,0,1-.7-1.71l2-2a1,1,0,0,1,1.42,0,1,1,0,0,1,0,1.41l-2,2A1,1,0,0,1,4,21Z" fill="#669df6"/><path d="M5.47,17.13,4.25,18.35a11.13,11.13,0,0,0,1.42,1.41l1.22-1.22Z" fill="#4285f4"/><path d="M19.73,18.31l-1-1a1.19,1.19,0,0,0-.23-.16l-1.34,1.34a1.19,1.19,0,0,0,.16.23l1,1A11.13,11.13,0,0,0,19.73,18.31Z" fill="#4285f4"/><g data-name="colored-32/scheduler"><rect width="24" height="24" fill="none"/><g ><g ><path d="M12,21a9,9,0,1,1,9-9A9,9,0,0,1,12,21Zm0-2a7,7,0,1,0-7-7A7,7,0,0,0,12,19Z" fill="#669df6"/><path d="M12,17a5,5,0,0,0,5-5,5,5,0,0,0-5-5v5L7.92,14.91A5,5,0,0,0,12,17Z" fill="#4285f4"/></g></g></g><path d="M4,6.07a1,1,0,0,1-.71-1.71l2-2a1,1,0,0,1,1.42,0,1,1,0,0,1,0,1.41l-2,2A1,1,0,0,1,4,6.07Z" fill="#aecbfa"/><path d="M20,6.07a1,1,0,0,1-.71-.3l-2-2a1,1,0,0,1,0-1.41,1,1,0,0,1,1.42,0l2,2A1,1,0,0,1,20,6.07Z" fill="#aecbfa"/></g></svg>
