<svg id="Cloud-Load-Balancing" xmlns="http://www.w3.org/2000/svg" viewBox="0 0 24 24"><g data-name="Product Icons"><g data-name="colored-32/load-balancing"><rect width="24" height="24" fill="none"/><g ><rect x="18" y="12" width="2" height="4" fill="#669df6"/><rect x="11" y="12" width="2" height="4" fill="#669df6"/><rect x="4" y="12" width="2" height="4" fill="#669df6"/><polygon points="13 11 11 11 11 7 13 7 13 11" fill="#4285f4"/><rect x="4" y="11" width="16" height="2" fill="#669df6"/><rect x="6" y="2" width="12" height="5" fill="#aecbfa"/><rect x="12" y="2" width="6" height="5" fill="#669df6"/><rect x="16" y="16" width="6" height="6" fill="#aecbfa"/><rect x="2" y="16" width="6" height="6" fill="#aecbfa"/><rect x="5" y="16" width="3" height="6" fill="#669df6"/><rect x="9" y="16" width="6" height="6" fill="#aecbfa"/><rect x="12" y="16" width="3" height="6" fill="#669df6"/><rect x="19" y="16" width="3" height="6" fill="#669df6"/></g></g></g></svg>
