<svg id="Cloud-CDN" xmlns="http://www.w3.org/2000/svg" viewBox="0 0 24 24"><g data-name="Product Icons"><rect x="2" y="2" width="20" height="20" fill="none"/><g ><polygon points="12 2 12 4.41 15.13 7.63 15.13 5.21 12 2" fill="#669df6" fill-rule="evenodd"/><polygon points="19.5 12 16.38 15.13 18.88 15.13 22 12 19.5 12" fill="#669df6" fill-rule="evenodd"/><polygon points="4.5 12 7.63 15.13 5.13 15.13 2 12 4.5 12" fill="#669df6" fill-rule="evenodd"/><polygon points="12 22 12 19.59 15.13 16.38 15.13 18.79 12 22" fill="#669df6" fill-rule="evenodd"/><polygon points="12 2 8.88 5.21 8.88 7.63 12 4.41 12 2" fill-rule="evenodd" fill="#aecbfa"/><polygon points="18.88 8.88 16.38 8.88 19.5 12 22 12 18.88 8.88" fill-rule="evenodd" fill="#aecbfa"/><polygon points="5.13 8.88 7.63 8.88 4.5 12 2 12 5.13 8.88" fill-rule="evenodd" fill="#aecbfa"/><polygon points="12 22 8.88 18.79 8.88 16.38 12 19.59 12 22" fill-rule="evenodd" fill="#aecbfa"/><polygon points="15.13 15.13 8.88 15.13 8.88 8.88 15.13 8.88 15.13 15.13" fill-rule="evenodd" fill="#aecbfa"/><polygon points="15.13 8.88 15.13 15.13 8.88 15.13 15.13 8.88" fill="#669df6" fill-rule="evenodd"/><polygon points="15.13 8.88 15.13 15.13 12 12 15.13 8.88" fill-rule="evenodd" fill="#4285f4"/></g></g></svg>
