<svg id="Cloud-Logging" xmlns="http://www.w3.org/2000/svg" viewBox="0 0 24 24"><g data-name="Product Icons"><rect x="6" y="11" width="4" height="2" fill="#4285f4"/><rect x="4" y="18" width="6" height="2" fill="#4285f4"/><g data-name="colored-32/logs"><rect width="24" height="24" fill="none"/><g ><polygon points="4 18 6 18 6 6 4 6 4 18" fill="#4285f4"/><polygon points="9 7 22 7 22 3 9 3 9 7" fill="#669df6"/><polygon data-name="Fill-4" points="9 14 22 14 22 10 9 10 9 14" fill="#669df6"/><polygon data-name="Fill-4" points="9 21 22 21 22 17 9 17 9 21" fill="#669df6"/><polygon points="2 8 8 8 8 2 2 2 2 8" fill="#aecbfa"/></g></g></g></svg>
