<svg id="Cloud-SQL" xmlns="http://www.w3.org/2000/svg" viewBox="0 0 24 24"><g data-name="Product Icons"><g ><polygon points="4.67 10.44 4.67 13.45 12 17.35 12 14.34 4.67 10.44" fill="#aecbfa" fill-rule="evenodd"/><polygon points="4.67 15.09 4.67 18.1 12 22 12 18.99 4.67 15.09" fill="#aecbfa" fill-rule="evenodd"/><polygon points="12 17.35 19.33 13.45 19.33 10.44 12 14.34 12 17.35" fill-rule="evenodd" fill="#669df6"/><polygon points="12 22 19.33 18.1 19.33 15.09 12 18.99 12 22" fill-rule="evenodd" fill="#669df6"/><polygon points="19.33 8.91 19.33 5.9 12 2 12 5.01 19.33 8.91" fill-rule="evenodd" fill="#4285f4"/><polygon points="12 2 4.67 5.9 4.67 8.91 12 5.01 12 2" fill-rule="evenodd" fill="#669df6"/><polygon points="4.67 5.87 4.67 8.89 12 12.79 12 9.77 4.67 5.87" fill="#aecbfa" fill-rule="evenodd"/><polygon points="12 12.79 19.33 8.89 19.33 5.87 12 9.77 12 12.79" fill-rule="evenodd" fill="#669df6"/></g></g></svg>
