<svg id="Compute-Engine" xmlns="http://www.w3.org/2000/svg" viewBox="0 0 24 24"><g data-name="Product Icons"><rect x="9" y="9" width="6" height="6" fill="#aecbfa"/><rect x="11" y="2" width="2" height="4" fill="#669df6"/><rect x="7" y="2" width="2" height="4" fill="#669df6"/><rect x="15" y="2" width="2" height="4" fill="#669df6"/><rect x="11" y="18" width="2" height="4" fill="#4285f4"/><rect x="7" y="18" width="2" height="4" fill="#4285f4"/><rect x="15" y="18" width="2" height="4" fill="#4285f4"/><rect x="19" y="10" width="2" height="4" transform="translate(8 32) rotate(-90)" fill="#4285f4"/><rect x="19" y="14" width="2" height="4" transform="translate(4 36) rotate(-90)" fill="#4285f4"/><rect x="19" y="6" width="2" height="4" transform="translate(12 28) rotate(-90)" fill="#4285f4"/><rect x="3" y="10" width="2" height="4" transform="translate(-8 16) rotate(-90)" fill="#669df6"/><rect x="3" y="14" width="2" height="4" transform="translate(-12 20) rotate(-90)" fill="#669df6"/><rect x="3" y="6" width="2" height="4" transform="translate(-4 12) rotate(-90)" fill="#669df6"/><path d="M5,5V19H19V5ZM17,17H7V7H17Z" fill="#aecbfa"/><polygon points="9 15 15 15 12 12 9 15" fill="#669df6"/><polygon points="12 12 15 15 15 9 12 12" fill="#4285f4"/></g></svg>
