<svg id="Dataflow" xmlns="http://www.w3.org/2000/svg" viewBox="0 0 24 24"><g data-name="Product Icons"><g ><polygon points="13.79 5.04 13.52 4.1 12.11 4.03 10.39 4.99 11.91 6.49 11.89 8.22 12.91 8.23 12.93 6.5 17.17 9.06 17.16 10.13 18.93 10.16 18.93 8.11 13.79 5.04" fill="#669df6" fill-rule="evenodd"/><polygon points="12.11 4.03 12.11 4.03 12.1 4.03 10.68 4.38 10.39 4.99 5.13 7.92 5.1 9.97 6.88 10 6.9 8.93 11.21 6.48 11.19 8.21 12.05 8.22 12.11 4.03" fill-rule="evenodd" fill="#aecbfa"/><polygon points="12.11 4.03 12.11 4.03 12.1 4.03 8.69 2 6.95 2.95 10.39 4.99 12.11 4.03 12.11 4.03" fill="#669df6" fill-rule="evenodd"/><polygon points="17.09 15.06 12.79 17.51 12.81 15.79 11.09 15.77 11.07 17.49 11.89 19.97 13.31 19.85 13.6 19 18.87 16.07 18.9 13.98 17.11 13.96 17.09 15.06" fill="#669df6" fill-rule="evenodd"/><polygon points="11.89 19.97 11.89 19.97 11.89 19.97 8.43 21.91 8.38 21.91 6.72 20.92 10.21 18.96 11.89 19.97 11.89 19.97" fill="#669df6" fill-rule="evenodd"/><polygon points="13.79 5.04 17.28 3.08 15.62 2.09 15.57 2.09 12.11 4.03 13.79 5.04" fill-rule="evenodd" fill="#4285f4"/><polygon points="13.61 19.01 17.05 21.05 15.36 22 15.31 22 11.89 19.97 11.89 19.97 11.89 19.97 11.89 19.97 13.61 19.01" fill-rule="evenodd" fill="#4285f4"/><polygon points="11.89 19.96 10.21 18.96 5.07 15.89 5.07 13.89 6.83 13.89 6.82 14.93 11.07 17.49 11.09 15.77 11.95 15.78 11.89 19.96" fill-rule="evenodd" fill="#aecbfa"/><circle cx="18.12" cy="12.04" r="1.14" fill="#aecbfa"/><circle cx="5.88" cy="11.88" r="1.14" fill="#aecbfa"/><circle cx="12.06" cy="9.99" r="1.14" fill="#aecbfa"/><circle cx="11.97" cy="14" r="1.14" fill="#aecbfa"/></g></g></svg>
