<svg id="Dataproc" xmlns="http://www.w3.org/2000/svg" viewBox="0 0 24 24"><g data-name="Product Icons"><rect x="2" y="2" width="20" height="20" fill="none"/><g ><polygon points="17.85 14.2 7.67 20.08 6.69 18.4 16.88 12.51 17.85 14.2" fill="#aecbfa" fill-rule="evenodd"/><polygon points="7.63 18.16 7.63 6.4 9.5 6.4 9.5 16.75 7.63 18.16" fill="#aecbfa" fill-rule="evenodd"/><polygon points="9.56 9.69 9.3 7.33 19.49 13.2 18.52 14.88 9.56 9.69" fill="#aecbfa" fill-rule="evenodd"/><path d="M14.39,10.26,9.3,7.33l.26,2.36,1.51.86a4,4,0,0,0,3.32-.29Z" fill-rule="evenodd" fill="#4285f4"/><path d="M8.13,8.29h0a3.78,3.78,0,1,1,3.27,1.89A3.8,3.8,0,0,1,8.13,8.29ZM13,5.49a1.84,1.84,0,0,0-1.59-.92A1.83,1.83,0,0,0,9.57,6.4a1.84,1.84,0,1,0,3.67,0A1.8,1.8,0,0,0,13,5.49Z" fill="#aecbfa" fill-rule="evenodd"/><path d="M7.63,12.94v5.22L9.5,16.75V15.12a3.29,3.29,0,0,0-1.87-2.18Z" fill-rule="evenodd" fill="#4285f4"/><path d="M13.33,16.81l4.52-2.61-2.21-1L14.39,14a4.23,4.23,0,0,0-1.06,2.86Z" fill-rule="evenodd" fill="#4285f4"/><path d="M2.51,18.7h0a3.77,3.77,0,0,1,1.38-5.16,3.72,3.72,0,0,1,2.86-.38A3.78,3.78,0,1,1,2.51,18.7Zm4.85-2.81A1.79,1.79,0,0,0,6.25,15a1.83,1.83,0,0,0-2.06,2.69h0a1.83,1.83,0,1,0,3.17-1.84Z" fill="#aecbfa" fill-rule="evenodd"/><path d="M14.33,18.36h0a3.79,3.79,0,0,1,0-3.77,3.79,3.79,0,0,1,5.16-1.39,3.78,3.78,0,0,1,1.38,5.16,3.78,3.78,0,0,1-6.54,0Zm4.86-2.81a2,2,0,0,0-.67-.67,1.85,1.85,0,0,0-2.51.68,1.86,1.86,0,0,0,0,1.83,1.83,1.83,0,0,0,2.07.85,1.82,1.82,0,0,0,1.11-.85,1.88,1.88,0,0,0,0-1.84Z" fill="#aecbfa" fill-rule="evenodd"/><path d="M9.49,16.15s-2.34,2-2.8,2.25l2.86-1.65a4.07,4.07,0,0,0-.06-.6Z" fill-rule="evenodd" fill="#669df6"/><path d="M10.15,10S9.56,6.72,9.56,6.4V9.69a3.47,3.47,0,0,0,.59.27Z" fill-rule="evenodd" fill="#669df6"/><path d="M15.3,13.47s2.76,1.15,3.22,1.41l-2.86-1.64a1.69,1.69,0,0,0-.36.23Z" fill-rule="evenodd" fill="#669df6"/></g></g></svg>
