<svg id="Error-Reporting" xmlns="http://www.w3.org/2000/svg" viewBox="0 0 24 24"><g data-name="Product Icons"><g ><polygon points="7 2 2 7 2 17 7 22 12 22 9.5 19.14 8.25 19.14 4.86 15.75 4.86 8.25 8.25 4.86 9.5 4.86 12 2 7 2" fill="#669df6" fill-rule="evenodd"/><polygon points="14.5 2 12 4.86 15.75 4.86 19.14 8.25 19.14 15.75 15.75 19.14 12 19.14 14.5 22 17 22 22 17 22 7 17 2 14.5 2" fill="#669df6" fill-rule="evenodd"/><polygon points="12 17 9.5 14.5 12 12 9.5 9.5 12 7 9.5 7 7 9.5 7 14.5 9.5 17 12 17" fill-rule="evenodd" fill="#4285f4"/><polygon points="14.5 7 12 9.5 14.5 12 12 14.5 14.5 17 17 14.5 17 9.5 14.5 7" fill-rule="evenodd" fill="#4285f4"/></g></g></svg>
