<svg id="Virtual-Private-Cloud" xmlns="http://www.w3.org/2000/svg" viewBox="0 0 24 24"><g data-name="Product Icons"><rect x="16" y="2" width="6" height="6" fill="#aecbfa"/><rect x="19" y="2" width="3" height="6" fill="#669df6"/><rect x="16" y="16" width="6" height="6" fill="#aecbfa"/><rect x="19" y="16" width="3" height="6" fill="#669df6"/><rect x="2" y="2" width="6" height="6" fill="#aecbfa"/><rect x="5" y="2" width="3" height="6" fill="#669df6"/><rect x="2" y="16" width="6" height="6" fill="#aecbfa"/><rect x="5" y="16" width="3" height="6" fill="#669df6"/><rect x="8" y="4" width="8" height="2" fill="#669df6"/><rect x="8" y="18" width="8" height="2" fill="#669df6"/><rect x="18" y="8" width="2" height="8" fill="#669df6"/><rect x="4" y="8" width="2" height="8" fill="#669df6"/><rect x="4" y="8" width="2" height="2" fill="#4285f4"/><rect x="18" y="8" width="2" height="2" fill="#4285f4"/><rect x="8" y="4" width="2" height="2" fill="#4285f4"/><rect x="8" y="18" width="2" height="2" fill="#4285f4"/></g></svg>
